<svg width="396" height="100" viewBox="0 0 396 100" fill="none" xmlns="http://www.w3.org/2000/svg">
<path fill-rule="evenodd" clip-rule="evenodd" d="M56.6348 17.5584C60.132 20.0268 63.5676 22.57 67.6713 23.8285C72.6659 25.3602 79.1338 22.2333 83.0511 25.6595C86.7591 28.9026 82.6048 36.3091 86.0069 39.8652C94.3495 48.5853 112.696 48.2248 115.755 59.8428C118.024 68.4624 104.024 73.6162 95.9075 77.4738C88.8956 80.8064 80.0998 76.9604 73.0214 80.1525C66.1569 83.2483 63.593 92.3009 56.6348 95.1848C48.9282 98.379 37.7937 103.09 31.9628 97.1699C24.9433 90.0432 36.0512 75.4566 29.6465 67.7842C23.0665 59.9018 3.12363 69.0462 0.281691 59.2183C-2.46528 49.7187 15.6483 46.721 21.1758 38.4911C24.416 33.6665 23.5406 27.343 25.3827 21.8449C27.8925 14.3537 26.1382 1.17541 34.0413 0.0914117C43.6296 -1.22373 48.7553 11.9968 56.6348 17.5584Z" fill="#2FBC6B"/>
<path d="M53.0964 70.2878L43.0644 69.8078C40.3444 69.8078 38.1204 69.8718 36.3924 69.9998V68.2238C37.3524 68.1598 38.0884 68.0798 38.6004 67.9838C39.1444 67.8878 39.6244 67.6798 40.0404 67.3598C40.4884 67.0398 40.7124 66.5918 40.7124 66.0158C40.7124 54.9438 40.6004 45.6958 40.3764 38.2718C40.3444 37.5678 40.0884 37.1038 39.6084 36.8798C39.1604 36.6238 38.3124 36.4638 37.0644 36.3998L36.3924 36.3518V34.5758C38.1204 34.7038 40.4084 34.7678 43.2564 34.7678C46.1364 34.7678 48.5204 34.6878 50.4084 34.5278C52.2964 34.3678 53.5764 34.2878 54.2484 34.2878H55.2564C60.4724 34.2878 64.2804 35.5678 66.6804 38.1278C69.0804 40.6878 70.2804 44.7678 70.2804 50.3678C70.2804 53.2478 69.9284 55.8558 69.2244 58.1918C68.5524 60.5278 67.6564 62.4318 66.5364 63.9038C65.4484 65.3758 64.1844 66.6078 62.7444 67.5998C60.0884 69.3918 57.2084 70.2878 54.1044 70.2878H53.0964ZM45.3684 63.2798C45.3684 64.8798 45.9924 65.9518 47.2404 66.4958C48.5204 67.0398 51.0644 67.3118 54.8724 67.3118C57.2084 67.3118 58.9364 66.8958 60.0564 66.0638C61.1764 65.1998 62.3284 63.6958 63.5124 61.5518C64.7284 59.4078 65.3364 56.1918 65.3364 51.9038C65.3364 46.6558 64.2964 42.8158 62.2164 40.3838C60.1684 37.9198 56.9204 36.6878 52.4724 36.6878C49.4004 36.6878 47.3364 36.8638 46.2804 37.2158L45.7524 37.7438C45.4964 44.5278 45.3684 53.0398 45.3684 63.2798ZM74.762 50.8478C75.274 49.6638 76.506 48.3838 78.458 47.0078C80.41 45.5998 82.17 44.8958 83.738 44.8958C85.338 44.8958 86.698 45.0718 87.818 45.4238C88.938 45.7758 89.818 46.3038 90.458 47.0078C91.098 47.6798 91.61 48.3518 91.994 49.0238C92.41 49.6638 92.682 50.4798 92.81 51.4718C93.066 53.0718 93.194 54.2878 93.194 55.1198V56.5118C92.17 57.1518 90.49 57.4718 88.154 57.4718H78.314C78.314 60.8958 78.57 63.0878 79.082 64.0478C79.85 65.4558 80.81 66.3358 81.962 66.6878C82.698 66.9118 83.562 67.0238 84.554 67.0238C87.338 67.0238 89.882 65.8878 92.186 63.6158L93.242 64.7198C93.114 64.8478 92.81 65.1678 92.33 65.6798C91.85 66.1598 91.53 66.4798 91.37 66.6398C91.21 66.7998 90.906 67.1038 90.458 67.5518C90.01 67.9678 89.658 68.2558 89.402 68.4158C89.178 68.5758 88.842 68.8158 88.394 69.1358C87.978 69.4558 87.61 69.6798 87.29 69.8078C87.002 69.9358 86.634 70.0958 86.186 70.2878C85.45 70.5758 84.586 70.7198 83.594 70.7198C81.674 70.7198 80.026 70.3518 78.65 69.6158C77.306 68.8478 76.298 67.8238 75.626 66.5438C74.346 64.2078 73.706 61.4238 73.706 58.1918C73.706 54.9598 74.058 52.5118 74.762 50.8478ZM78.41 55.3118H81.146C85.402 55.3118 87.93 55.0238 88.73 54.4478C88.73 53.0718 88.506 51.8878 88.058 50.8958C87.226 48.9758 85.754 48.0158 83.642 48.0158C81.53 48.0158 80.122 48.5598 79.418 49.6478C78.746 50.7038 78.41 52.5918 78.41 55.3118Z" fill="white"/>
<path d="M127.96 40.9598C127.448 40.9598 126.872 40.5758 126.232 39.8078C125.592 39.0078 125.272 38.4318 125.272 38.0798C125.272 37.6958 125.528 37.0238 126.04 36.0638C126.584 35.1038 127.144 34.6238 127.72 34.6238C128.296 34.6238 128.936 34.9278 129.64 35.5358C130.344 36.1118 130.696 36.7838 130.696 37.5518C130.696 38.3198 130.36 39.0878 129.688 39.8558C129.048 40.5918 128.472 40.9598 127.96 40.9598ZM122.44 69.9998V68.3678C124.072 68.2398 125.096 68.0318 125.512 67.7438C125.928 67.4238 126.136 66.7838 126.136 65.8238V55.8398C126.136 53.0558 126.056 51.1198 125.896 50.0318C125.768 48.9438 125.544 48.2558 125.224 47.9678C124.904 47.6478 124.296 47.4878 123.4 47.4878H122.68L122.584 45.9038C124.952 45.6798 126.712 45.4398 127.864 45.1838C129.048 44.8958 129.688 44.7518 129.784 44.7518C130.328 44.7518 130.6 45.0078 130.6 45.5198C130.6 45.9038 130.584 46.9598 130.552 48.6878C130.424 55.5358 130.36 61.4398 130.36 66.3998C130.36 67.0398 130.616 67.5198 131.128 67.8398C131.64 68.1278 132.456 68.3038 133.576 68.3678V69.9998H122.44ZM154.467 51.1838L154.275 63.8558C154.275 64.6558 154.627 65.6318 155.331 66.7838C156.067 67.9038 156.435 68.5598 156.435 68.7518C156.435 68.9118 156.291 69.0398 156.003 69.1358C153.763 69.8718 152.499 70.2398 152.211 70.2398C151.955 70.2398 151.683 70.0158 151.395 69.5678C151.139 69.0878 150.899 68.5118 150.675 67.8398C150.451 67.1678 150.323 66.8158 150.291 66.7838C149.811 67.1038 149.219 67.5038 148.515 67.9838C147.811 68.4638 147.315 68.7998 147.027 68.9918C146.771 69.1518 146.387 69.3598 145.875 69.6158C145.395 69.8718 144.963 70.0478 144.579 70.1438C143.683 70.3678 142.467 70.4798 140.931 70.4798C139.427 70.4798 138.307 69.8718 137.571 68.6558C136.835 67.4398 136.467 66.1118 136.467 64.6718C136.467 63.2318 136.579 62.0798 136.803 61.2158C137.027 60.3518 137.395 59.6318 137.907 59.0558C138.419 58.4798 138.931 57.9998 139.443 57.6158C139.955 57.2318 140.675 56.9118 141.603 56.6558C142.563 56.3678 143.379 56.1598 144.051 56.0318C144.755 55.8718 145.731 55.6798 146.979 55.4558C148.227 55.1998 149.235 54.9918 150.003 54.8318L150.051 51.9518C150.051 50.4798 149.523 49.4238 148.467 48.7838C147.411 48.1438 146.131 47.8238 144.627 47.8238C143.155 47.8238 142.131 48.2078 141.555 48.9758C140.979 49.7118 140.355 51.3118 139.683 53.7758L137.715 53.5838C137.715 50.7998 138.195 48.8478 139.155 47.7278C140.307 46.3838 141.555 45.5518 142.899 45.2318C144.243 44.9118 145.603 44.7518 146.979 44.7518C148.387 44.7518 149.587 44.9118 150.579 45.2318C151.571 45.5518 152.307 45.9198 152.787 46.3358C153.299 46.7198 153.683 47.2638 153.939 47.9678C154.227 48.6398 154.387 49.1838 154.419 49.5998C154.451 50.0158 154.467 50.5438 154.467 51.1838ZM140.787 63.7118C140.787 66.0798 141.859 67.2638 144.003 67.2638C145.891 67.2638 147.795 66.4638 149.715 64.8638C149.939 64.6718 150.051 63.5038 150.051 61.3598C150.051 59.2158 150.035 57.6638 150.003 56.7038C149.427 56.8958 148.691 57.1358 147.795 57.4238C146.931 57.7118 146.307 57.9198 145.923 58.0478C145.571 58.1758 145.091 58.3518 144.483 58.5758C143.875 58.7678 143.459 58.9278 143.235 59.0558C143.043 59.1838 142.755 59.3438 142.371 59.5358C142.019 59.7278 141.795 59.9198 141.699 60.1118C141.603 60.2718 141.459 60.4798 141.267 60.7358C141.075 60.9598 140.963 61.2318 140.931 61.5518C140.835 62.4478 140.787 63.1678 140.787 63.7118ZM159.005 46.3358C160.317 46.2078 161.629 45.9038 162.941 45.4238C164.285 44.9438 165.149 44.7038 165.533 44.7038C165.949 44.7038 166.237 44.8958 166.397 45.2798C166.557 45.6318 166.637 46.2878 166.637 47.2478V47.9198C170.317 45.8398 173.197 44.7998 175.277 44.7998C177.389 44.7998 178.845 45.3758 179.645 46.5278C180.445 47.6478 180.845 48.9438 180.845 50.4158V66.4478C180.845 67.1518 180.989 67.6318 181.277 67.8878C181.597 68.1438 182.301 68.3038 183.389 68.3678V69.9998H173.597V68.3678C174.813 68.2718 175.565 68.0798 175.853 67.7918C176.173 67.5038 176.333 66.9918 176.333 66.2558V51.0398C176.333 50.2398 176.077 49.6318 175.565 49.2158C175.085 48.7678 174.573 48.5118 174.029 48.4478C173.517 48.3518 172.909 48.3038 172.205 48.3038C171.533 48.3038 170.621 48.4958 169.469 48.8798C168.317 49.2318 167.421 49.6318 166.781 50.0798C166.749 51.9678 166.701 53.9358 166.637 55.9838C166.509 60.1438 166.445 63.0238 166.445 64.6238C166.445 66.1918 166.605 67.1998 166.925 67.6478C167.245 68.0638 168.029 68.3038 169.277 68.3678V69.9998H159.197V68.3678C160.157 68.2398 160.829 68.0638 161.213 67.8398C161.629 67.5838 161.885 67.2158 161.981 66.7358C162.109 65.9038 162.173 64.9438 162.173 63.8558C162.173 62.7358 162.125 60.1438 162.029 56.0798C161.933 51.9838 161.869 49.8718 161.837 49.7438C161.805 49.5838 161.757 49.4398 161.693 49.3118C161.661 49.1518 161.597 49.0238 161.501 48.9278C161.437 48.8318 161.373 48.7518 161.309 48.6878C161.277 48.6238 161.197 48.5598 161.069 48.4958C160.941 48.4318 160.845 48.3998 160.781 48.3998C160.717 48.3678 160.589 48.3358 160.397 48.3038C160.237 48.2718 160.125 48.2398 160.061 48.2078C159.869 48.1758 159.565 48.1598 159.149 48.1598L159.005 46.3358ZM189.028 60.9758L189.172 48.4958H184.996V47.0558L189.172 46.2398V41.8238L192.868 40.6718C193.348 40.6718 193.588 40.9118 193.588 41.3918L193.492 44.3198V45.8078H199.588L199.444 48.4958H193.492L193.348 60.3518C193.348 62.8158 193.492 64.5918 193.78 65.6798C194.1 66.7678 194.676 67.3118 195.508 67.3118C196.34 67.3118 197.54 66.8478 199.108 65.9198L200.116 66.8798C197.652 69.4398 195.636 70.7198 194.068 70.7198C191.988 70.7198 190.628 70.0158 189.988 68.6078C189.348 67.1998 189.028 64.6558 189.028 60.9758ZM230.221 70.2878L220.189 69.8078C217.469 69.8078 215.245 69.8718 213.517 69.9998V68.2238C214.477 68.1598 215.213 68.0798 215.725 67.9838C216.269 67.8878 216.749 67.6798 217.165 67.3598C217.613 67.0398 217.837 66.5918 217.837 66.0158C217.837 54.9438 217.725 45.6958 217.501 38.2718C217.469 37.5678 217.213 37.1038 216.733 36.8798C216.285 36.6238 215.437 36.4638 214.189 36.3998L213.517 36.3518V34.5758C215.245 34.7038 217.533 34.7678 220.381 34.7678C223.261 34.7678 225.645 34.6878 227.533 34.5278C229.421 34.3678 230.701 34.2878 231.373 34.2878H232.381C237.597 34.2878 241.405 35.5678 243.805 38.1278C246.205 40.6878 247.405 44.7678 247.405 50.3678C247.405 53.2478 247.053 55.8558 246.349 58.1918C245.677 60.5278 244.781 62.4318 243.661 63.9038C242.573 65.3758 241.309 66.6078 239.869 67.5998C237.213 69.3918 234.333 70.2878 231.229 70.2878H230.221ZM222.493 63.2798C222.493 64.8798 223.117 65.9518 224.365 66.4958C225.645 67.0398 228.189 67.3118 231.997 67.3118C234.333 67.3118 236.061 66.8958 237.181 66.0638C238.301 65.1998 239.453 63.6958 240.637 61.5518C241.853 59.4078 242.461 56.1918 242.461 51.9038C242.461 46.6558 241.421 42.8158 239.341 40.3838C237.293 37.9198 234.045 36.6878 229.597 36.6878C226.525 36.6878 224.461 36.8638 223.405 37.2158L222.877 37.7438C222.621 44.5278 222.493 53.0398 222.493 63.2798ZM251.887 50.8478C252.399 49.6638 253.631 48.3838 255.583 47.0078C257.535 45.5998 259.295 44.8958 260.863 44.8958C262.463 44.8958 263.823 45.0718 264.943 45.4238C266.063 45.7758 266.943 46.3038 267.583 47.0078C268.223 47.6798 268.735 48.3518 269.119 49.0238C269.535 49.6638 269.807 50.4798 269.935 51.4718C270.191 53.0718 270.319 54.2878 270.319 55.1198V56.5118C269.295 57.1518 267.615 57.4718 265.279 57.4718H255.439C255.439 60.8958 255.695 63.0878 256.207 64.0478C256.975 65.4558 257.935 66.3358 259.087 66.6878C259.823 66.9118 260.687 67.0238 261.679 67.0238C264.463 67.0238 267.007 65.8878 269.311 63.6158L270.367 64.7198C270.239 64.8478 269.935 65.1678 269.455 65.6798C268.975 66.1598 268.655 66.4798 268.495 66.6398C268.335 66.7998 268.031 67.1038 267.583 67.5518C267.135 67.9678 266.783 68.2558 266.527 68.4158C266.303 68.5758 265.967 68.8158 265.519 69.1358C265.103 69.4558 264.735 69.6798 264.415 69.8078C264.127 69.9358 263.759 70.0958 263.311 70.2878C262.575 70.5758 261.711 70.7198 260.719 70.7198C258.799 70.7198 257.151 70.3518 255.775 69.6158C254.431 68.8478 253.423 67.8238 252.751 66.5438C251.471 64.2078 250.831 61.4238 250.831 58.1918C250.831 54.9598 251.183 52.5118 251.887 50.8478ZM255.535 55.3118H258.271C262.527 55.3118 265.055 55.0238 265.855 54.4478C265.855 53.0718 265.631 51.8878 265.183 50.8958C264.351 48.9758 262.879 48.0158 260.767 48.0158C258.655 48.0158 257.247 48.5598 256.543 49.6478C255.871 50.7038 255.535 52.5918 255.535 55.3118ZM278.133 58.8638C276.981 58.4158 275.989 57.6958 275.157 56.7038C274.357 55.7118 273.957 54.4318 273.957 52.8638C273.957 51.2958 274.229 50.0958 274.773 49.2638C275.925 47.4078 277.013 46.2078 278.037 45.6638C279.061 45.0878 280.373 44.7998 281.973 44.7998C283.573 44.7998 285.013 45.0718 286.293 45.6158C286.645 45.7438 286.901 45.8718 287.061 45.9998C287.637 46.3518 287.925 47.0078 287.925 47.9678C287.925 48.0638 287.909 48.3038 287.877 48.6878C287.813 49.5198 287.781 50.8478 287.781 52.6718H286.005C285.973 52.2558 285.829 51.6478 285.573 50.8478C285.349 50.0478 285.093 49.4398 284.805 49.0238C284.165 48.0958 282.965 47.6318 281.205 47.6318C279.509 47.6318 278.389 48.0478 277.845 48.8798C277.397 49.5518 277.173 50.3038 277.173 51.1358C277.173 51.9358 277.573 52.6558 278.373 53.2958C279.173 53.9038 280.149 54.3998 281.301 54.7838C282.453 55.1678 283.605 55.5998 284.757 56.0798C285.941 56.5278 286.933 57.2958 287.733 58.3838C288.533 59.4398 288.933 60.7998 288.933 62.4638C288.933 64.1278 288.693 65.3598 288.213 66.1598C287.349 67.5358 286.325 68.6878 285.141 69.6158C284.661 69.9678 283.909 70.2558 282.885 70.4798C281.861 70.7038 281.093 70.8158 280.581 70.8158C277.157 70.8158 275.109 70.2398 274.437 69.0878C274.181 68.6718 274.053 68.1278 274.053 67.4558C274.053 64.8638 274.117 63.2798 274.245 62.7038C274.405 62.0958 274.741 61.7918 275.253 61.7918C275.797 61.7918 276.133 62.0158 276.261 62.4638C276.389 62.9118 276.501 63.5358 276.597 64.3358C276.949 66.6078 278.517 67.7438 281.301 67.7438C282.709 67.7438 283.813 67.4238 284.613 66.7838C285.413 66.1438 285.813 65.2798 285.813 64.1918C285.813 63.0718 285.397 62.1918 284.565 61.5518C283.765 60.9118 282.773 60.4158 281.589 60.0638C280.437 59.6798 279.285 59.2798 278.133 58.8638ZM297.32 40.9598C296.808 40.9598 296.232 40.5758 295.592 39.8078C294.952 39.0078 294.632 38.4318 294.632 38.0798C294.632 37.6958 294.888 37.0238 295.4 36.0638C295.944 35.1038 296.504 34.6238 297.08 34.6238C297.656 34.6238 298.296 34.9278 299 35.5358C299.704 36.1118 300.056 36.7838 300.056 37.5518C300.056 38.3198 299.72 39.0878 299.048 39.8558C298.408 40.5918 297.832 40.9598 297.32 40.9598ZM291.8 69.9998V68.3678C293.432 68.2398 294.456 68.0318 294.872 67.7438C295.288 67.4238 295.496 66.7838 295.496 65.8238V55.8398C295.496 53.0558 295.416 51.1198 295.256 50.0318C295.128 48.9438 294.904 48.2558 294.584 47.9678C294.264 47.6478 293.656 47.4878 292.76 47.4878H292.04L291.944 45.9038C294.312 45.6798 296.072 45.4398 297.224 45.1838C298.408 44.8958 299.048 44.7518 299.144 44.7518C299.688 44.7518 299.96 45.0078 299.96 45.5198C299.96 45.9038 299.944 46.9598 299.912 48.6878C299.784 55.5358 299.72 61.4398 299.72 66.3998C299.72 67.0398 299.976 67.5198 300.488 67.8398C301 68.1278 301.816 68.3038 302.936 68.3678V69.9998H291.8ZM304.387 73.9838C304.387 72.1278 305.315 70.5758 307.171 69.3278C308.067 68.7198 309.187 68.1278 310.531 67.5518C308.003 67.1998 306.739 66.3358 306.739 64.9598C306.739 63.5198 308.163 62.3678 311.011 61.5038C309.379 60.7678 308.211 59.9998 307.507 59.1998C306.803 58.3678 306.307 57.1838 306.019 55.6478C305.987 55.5198 305.971 55.2158 305.971 54.7358C305.971 53.0078 306.227 51.5998 306.739 50.5118C307.251 49.3918 308.467 48.1758 310.387 46.8638C312.307 45.5198 314.291 44.8478 316.339 44.8478C318.419 44.8478 320.227 45.4878 321.763 46.7678C323.331 46.7038 324.883 46.4958 326.419 46.1438L326.707 46.4318V48.4478H322.915C323.171 48.7998 323.395 49.5038 323.587 50.5598C323.779 51.6158 323.875 52.6878 323.875 53.7758C323.875 55.9838 322.947 57.9358 321.091 59.6318C319.427 60.5918 317.411 61.3278 315.043 61.8398C312.419 62.5118 311.107 63.4238 311.107 64.5758C311.107 65.0238 311.299 65.4078 311.683 65.7278C312.067 66.0478 312.563 66.2078 313.171 66.2078H318.883C320.995 66.2078 322.451 66.3678 323.251 66.6878C324.051 67.0078 324.819 67.6478 325.555 68.6078C326.323 69.5678 326.707 70.5438 326.707 71.5358C326.707 72.5598 326.483 73.5038 326.035 74.3678C325.587 75.2638 324.899 76.1278 323.971 76.9598C323.075 77.7918 321.779 78.4638 320.083 78.9758C318.387 79.5198 316.723 79.7918 315.091 79.7918C313.459 79.7918 312.115 79.6958 311.059 79.5038C310.035 79.3438 308.995 79.0558 307.939 78.6398C306.883 78.2558 306.019 77.6478 305.347 76.8158C304.707 76.0158 304.387 75.0718 304.387 73.9838ZM308.515 72.5918C308.515 74.0638 309.219 75.3118 310.627 76.3358C312.035 77.3918 313.507 77.9198 315.043 77.9198C317.411 77.9198 319.171 77.3918 320.323 76.3358C321.507 75.2798 322.099 73.9038 322.099 72.2078C322.099 69.7758 320.227 68.5598 316.483 68.5598C311.171 68.5598 308.515 69.9038 308.515 72.5918ZM310.387 54.4478C310.387 55.9198 310.803 57.1198 311.635 58.0478C312.467 58.9758 313.667 59.4398 315.235 59.4398C316.803 59.4398 317.875 59.0238 318.451 58.1918C319.027 57.3598 319.315 55.8558 319.315 53.6798C319.315 51.4718 318.995 49.9998 318.355 49.2638C317.715 48.5278 316.467 48.0478 314.611 47.8238C314.451 47.7918 314.227 47.7758 313.939 47.7758C312.755 47.7758 311.859 48.2718 311.251 49.2638C310.675 50.2238 310.387 51.9518 310.387 54.4478ZM328.224 46.3358C329.536 46.2078 330.848 45.9038 332.16 45.4238C333.504 44.9438 334.368 44.7038 334.752 44.7038C335.168 44.7038 335.456 44.8958 335.616 45.2798C335.776 45.6318 335.856 46.2878 335.856 47.2478V47.9198C339.536 45.8398 342.416 44.7998 344.496 44.7998C346.608 44.7998 348.064 45.3758 348.864 46.5278C349.664 47.6478 350.064 48.9438 350.064 50.4158V66.4478C350.064 67.1518 350.208 67.6318 350.496 67.8878C350.816 68.1438 351.52 68.3038 352.608 68.3678V69.9998H342.816V68.3678C344.032 68.2718 344.784 68.0798 345.072 67.7918C345.392 67.5038 345.552 66.9918 345.552 66.2558V51.0398C345.552 50.2398 345.296 49.6318 344.784 49.2158C344.304 48.7678 343.792 48.5118 343.248 48.4478C342.736 48.3518 342.128 48.3038 341.424 48.3038C340.752 48.3038 339.84 48.4958 338.688 48.8798C337.536 49.2318 336.64 49.6318 336 50.0798C335.968 51.9678 335.92 53.9358 335.856 55.9838C335.728 60.1438 335.664 63.0238 335.664 64.6238C335.664 66.1918 335.824 67.1998 336.144 67.6478C336.464 68.0638 337.248 68.3038 338.496 68.3678V69.9998H328.416V68.3678C329.376 68.2398 330.048 68.0638 330.432 67.8398C330.848 67.5838 331.104 67.2158 331.2 66.7358C331.328 65.9038 331.392 64.9438 331.392 63.8558C331.392 62.7358 331.344 60.1438 331.248 56.0798C331.152 51.9838 331.088 49.8718 331.056 49.7438C331.024 49.5838 330.976 49.4398 330.912 49.3118C330.88 49.1518 330.816 49.0238 330.72 48.9278C330.656 48.8318 330.592 48.7518 330.528 48.6878C330.496 48.6238 330.416 48.5598 330.288 48.4958C330.16 48.4318 330.064 48.3998 330 48.3998C329.936 48.3678 329.808 48.3358 329.616 48.3038C329.456 48.2718 329.344 48.2398 329.28 48.2078C329.088 48.1758 328.784 48.1598 328.368 48.1598L328.224 46.3358ZM356.231 50.8478C356.743 49.6638 357.975 48.3838 359.927 47.0078C361.879 45.5998 363.639 44.8958 365.207 44.8958C366.807 44.8958 368.167 45.0718 369.287 45.4238C370.407 45.7758 371.287 46.3038 371.927 47.0078C372.567 47.6798 373.079 48.3518 373.463 49.0238C373.879 49.6638 374.151 50.4798 374.279 51.4718C374.535 53.0718 374.663 54.2878 374.663 55.1198V56.5118C373.639 57.1518 371.959 57.4718 369.623 57.4718H359.783C359.783 60.8958 360.039 63.0878 360.551 64.0478C361.319 65.4558 362.279 66.3358 363.431 66.6878C364.167 66.9118 365.031 67.0238 366.023 67.0238C368.807 67.0238 371.351 65.8878 373.655 63.6158L374.711 64.7198C374.583 64.8478 374.279 65.1678 373.799 65.6798C373.319 66.1598 372.999 66.4798 372.839 66.6398C372.679 66.7998 372.375 67.1038 371.927 67.5518C371.479 67.9678 371.127 68.2558 370.871 68.4158C370.647 68.5758 370.311 68.8158 369.863 69.1358C369.447 69.4558 369.079 69.6798 368.759 69.8078C368.471 69.9358 368.103 70.0958 367.655 70.2878C366.919 70.5758 366.055 70.7198 365.063 70.7198C363.143 70.7198 361.495 70.3518 360.119 69.6158C358.775 68.8478 357.767 67.8238 357.095 66.5438C355.815 64.2078 355.175 61.4238 355.175 58.1918C355.175 54.9598 355.527 52.5118 356.231 50.8478ZM359.879 55.3118H362.615C366.871 55.3118 369.399 55.0238 370.199 54.4478C370.199 53.0718 369.975 51.8878 369.527 50.8958C368.695 48.9758 367.223 48.0158 365.111 48.0158C362.999 48.0158 361.591 48.5598 360.887 49.6478C360.215 50.7038 359.879 52.5918 359.879 55.3118ZM385.453 52.6238L385.405 65.6318C385.405 66.6238 385.693 67.2798 386.269 67.5998C386.845 67.8878 387.709 68.1118 388.861 68.2718C390.045 68.4318 390.685 68.5118 390.781 68.5118V69.9998H377.341V68.3678C378.109 68.2718 378.621 68.2238 378.877 68.2238C379.133 68.1918 379.453 68.0958 379.837 67.9358C380.253 67.7438 380.493 67.5838 380.557 67.4558C380.621 67.2958 380.717 66.9758 380.845 66.4958C380.973 66.0158 381.037 65.5358 381.037 65.0558V61.2638C381.037 54.8318 380.925 51.0558 380.701 49.9358C380.445 48.6878 379.517 48.0638 377.917 48.0638L377.821 46.2398C379.101 46.1118 380.413 45.8078 381.757 45.3278C383.101 44.8478 383.965 44.6078 384.349 44.6078C384.733 44.6078 385.005 44.7998 385.165 45.1838C385.325 45.5358 385.405 46.1918 385.405 47.1518L385.453 48.9758C388.269 46.2558 390.493 44.8958 392.125 44.8958C393.309 44.8958 394.125 45.0398 394.573 45.3278C395.021 45.6158 395.245 46.1438 395.245 46.9118C395.245 47.1678 394.989 48.8958 394.477 52.0958H392.749C392.589 49.6958 391.773 48.4958 390.301 48.4958C389.469 48.4958 388.445 48.8798 387.229 49.6478C386.045 50.3838 385.453 51.3758 385.453 52.6238Z" fill="#2E2E2E"/>
<mask id="mask0" mask-type="alpha" maskUnits="userSpaceOnUse" x="95" y="44" width="24" height="27">
<path d="M114.776 45.568L117.944 45.376C118.392 45.376 118.616 45.616 118.616 46.096C118.616 46.192 118.584 46.288 118.52 46.384C118.488 46.448 118.408 46.576 118.28 46.768C118.184 46.96 118.04 47.2 117.848 47.488C117.688 47.744 117.448 48.176 117.128 48.784C116.84 49.36 116.504 50.032 116.12 50.8C114.392 54.32 112.504 58.912 110.456 64.576C109.336 67.68 108.648 69.408 108.392 69.76C108.168 70.112 107.96 70.352 107.768 70.48C107.48 70.64 107.016 70.72 106.376 70.72C105.768 70.72 105.304 70.448 104.984 69.904C104.696 69.328 104.264 68.096 103.688 66.208C103.144 64.288 102.728 62.896 102.44 62.032C102.184 61.136 101.8 59.808 101.288 58.048C100.808 56.256 100.408 54.832 100.088 53.776C99.128 50.48 98.232 48.56 97.4 48.016C97.08 47.792 96.648 47.664 96.104 47.632C95.56 47.6 95.224 47.568 95.096 47.536L95 45.952C97.208 45.664 98.872 45.376 99.992 45.088C101.112 44.768 101.736 44.608 101.864 44.608C102.408 44.608 102.68 44.848 102.68 45.328C102.68 46.256 103.928 51.28 106.424 60.4L107.72 64.96C111.112 56 112.808 50.544 112.808 48.592C112.808 47.728 112.52 47.296 111.944 47.296C111.368 47.296 111.08 46.976 111.08 46.336C111.08 45.76 111.624 45.472 112.712 45.472L114.776 45.568Z" fill="white"/>
</mask>
<g mask="url(#mask0)">
<path d="M114.776 45.568L117.944 45.376C118.392 45.376 118.616 45.616 118.616 46.096C118.616 46.192 118.584 46.288 118.52 46.384C118.488 46.448 118.408 46.576 118.28 46.768C118.184 46.96 118.04 47.2 117.848 47.488C117.688 47.744 117.448 48.176 117.128 48.784C116.84 49.36 116.504 50.032 116.12 50.8C114.392 54.32 112.504 58.912 110.456 64.576C109.336 67.68 108.648 69.408 108.392 69.76C108.168 70.112 107.96 70.352 107.768 70.48C107.48 70.64 107.016 70.72 106.376 70.72C105.768 70.72 105.304 70.448 104.984 69.904C104.696 69.328 104.264 68.096 103.688 66.208C103.144 64.288 102.728 62.896 102.44 62.032C102.184 61.136 101.8 59.808 101.288 58.048C100.808 56.256 100.408 54.832 100.088 53.776C99.128 50.48 98.232 48.56 97.4 48.016C97.08 47.792 96.648 47.664 96.104 47.632C95.56 47.6 95.224 47.568 95.096 47.536L95 45.952C97.208 45.664 98.872 45.376 99.992 45.088C101.112 44.768 101.736 44.608 101.864 44.608C102.408 44.608 102.68 44.848 102.68 45.328C102.68 46.256 103.928 51.28 106.424 60.4L107.72 64.96C111.112 56 112.808 50.544 112.808 48.592C112.808 47.728 112.52 47.296 111.944 47.296C111.368 47.296 111.08 46.976 111.08 46.336C111.08 45.76 111.624 45.472 112.712 45.472L114.776 45.568Z" fill="#2E2E2E"/>
<path d="M107.5 71C110 69 113.5 61.5 114.5 57.5L113 55.5L112.776 55.2762C112.26 54.7603 111.689 54.3024 111.074 53.9107L106.5 51L94.5 46V52L103.5 71H107.5Z" fill="white"/>
</g>
</svg>
