<svg width="146" height="98" viewBox="0 0 146 98" fill="none" xmlns="http://www.w3.org/2000/svg">
<path d="M63.5 42.6C61.3 37.7 58.5 33.5 54.8 29.8C51.2 26.2 46.9 23.3 42.1 21.2C37.2 19.1 32.1 18 26.6 18H0L13.3 31.4H26.6C30.2 31.4 33.7 32.1 36.9 33.4C40.1 34.8 43 36.8 45.4 39.2C47.9 41.7 49.8 44.5 51.2 47.7C52.6 51 53.3 54.4 53.3 58C53.3 61.6 52.6 65 51.2 68.3C49.8 71.5 47.9 74.3 45.5 76.8C43.1 79.3 40.2 81.2 37 82.6C33.8 83.9 30.3 84.6 26.6 84.6H13.3L0 98H26.6C32.1 98 37.3 96.9 42.1 94.8C47 92.7 51.3 89.8 54.9 86.2C58.5 82.5 61.3 78.3 63.5 73.4C65.6 68.6 66.6 63.5 66.6 58C66.6 52.5 65.6 47.4 63.5 42.6ZM114.379 42.6C112.179 37.7 109.379 33.5 105.679 29.8C102.079 26.2 97.7789 23.3 92.9789 21.2C88.0789 19.1 82.9789 18 77.4789 18H50.8789L64.1789 31.4H77.4789C81.0789 31.4 84.5789 32.1 87.7789 33.4C90.9789 34.8 93.8789 36.8 96.2789 39.2C98.7789 41.7 100.679 44.5 102.079 47.7C103.479 51 104.179 54.4 104.179 58C104.179 61.6 103.479 65 102.079 68.3C100.679 71.5 98.7789 74.3 96.3789 76.8C93.9789 79.3 91.0789 81.2 87.8789 82.6C84.6789 83.9 81.1789 84.6 77.4789 84.6H64.1789L50.8789 98H77.4789C82.9789 98 88.1789 96.9 92.9789 94.8C97.8789 92.7 102.179 89.8 105.779 86.2C109.379 82.5 112.179 78.3 114.379 73.4C116.479 68.6 117.479 63.5 117.479 58C117.479 52.5 116.479 47.4 114.379 42.6Z" fill="#2E2E2E"/>
<path d="M0 25L11.5104 36.3488C12.4635 37.2884 13 38.5709 13 39.9092V76.9289C13 78.255 12.4732 79.5268 11.5355 80.4645L0 92V25Z" fill="#2E2E2E"/>
<path d="M124.1 87.2C124.1 86.6 124.1 85.9667 124.1 85.3C124.1 84.6333 124.233 84.1333 124.5 83.8C124.767 83.3333 125.267 82.9667 126 82.7C126.133 82.7 126.267 82.7333 126.4 82.8C126.6 82.8 126.767 82.7667 126.9 82.7H134.8C135.6 82.7 136.333 82.7 137 82.7C137.733 82.7 138.333 82.8667 138.8 83.2C139.2 83.5333 139.433 84 139.5 84.6C139.567 85.2 139.6 85.8667 139.6 86.6V93.8C139.6 94.5333 139.567 95.2333 139.5 95.9C139.433 96.5 139.233 96.9333 138.9 97.2C138.433 97.5333 137.867 97.7333 137.2 97.8C136.533 97.8667 135.833 97.9 135.1 97.9H128.4C127.667 97.9 126.967 97.8667 126.3 97.8C125.633 97.7333 125.133 97.5 124.8 97.1C124.467 96.7 124.267 96.2 124.2 95.6C124.133 94.9333 124.1 94.2333 124.1 93.5V87.2Z" fill="#2E2E2E"/>
</svg>
